<svg id="Layer_1" data-name="Layer 1" xmlns="http://www.w3.org/2000/svg" viewBox="0 0 253.62 275.3"><defs><style>.cls-1{fill:#acc5e4;}.cls-2{fill:#58585a;}</style></defs><path class="cls-1" d="M182.27,197.42h-76L85.7,176.28V126a4.43,4.43,0,0,0-4.43-4.44H29.73A4.44,4.44,0,0,0,25.29,126v51.54A4.43,4.43,0,0,0,29.73,182H78.24L98.76,203a6.65,6.65,0,0,0-.1,1v77a6.63,6.63,0,0,0,6.63,6.63h77a6.62,6.62,0,0,0,6.62-6.63V204A6.62,6.62,0,0,0,182.27,197.42Z" transform="translate(-23.19 -12.35)"/><path class="cls-2" d="M272.38,12.35H220.84a4.44,4.44,0,0,0-4.44,4.44V65.3L195.35,85.82a6.91,6.91,0,0,0-1-.1h-77a6.62,6.62,0,0,0-6.63,6.62v77a6.62,6.62,0,0,0,6.63,6.62h77a5.2,5.2,0,0,0,.69-.07l18.9,19.39v50.28a4.43,4.43,0,0,0,4.43,4.44h51.54a4.44,4.44,0,0,0,4.44-4.44V194a4.43,4.43,0,0,0-4.44-4.43H221.38l-20.42-21V93.36l21.14-20.6h50.28a4.43,4.43,0,0,0,4.43-4.44V16.79A4.43,4.43,0,0,0,272.38,12.35Z" transform="translate(-23.19 -12.35)"/><rect class="cls-1" x="67.68" width="36.84" height="36.84" rx="2.71"/><rect class="cls-2" y="219.21" width="36.84" height="36.84" rx="2.71"/></svg>